<?xml version="1.0" encoding="UTF-8" standalone="no"?>
<!DOCTYPE svg PUBLIC "-//W3C//DTD SVG 1.1//EN"
 "http://www.w3.org/Graphics/SVG/1.1/DTD/svg11.dtd">
<!-- Generated by graphviz version 2.40.1 (20161225.0304)
 -->
<!-- Title: dependencies Pages: 1 -->
<svg width="668pt" height="284pt"
 viewBox="0.00 0.00 668.00 284.00" xmlns="http://www.w3.org/2000/svg" xmlns:xlink="http://www.w3.org/1999/xlink">
<g id="graph0" class="graph" transform="scale(1 1) rotate(0) translate(4 280)">
<title>dependencies</title>
<polygon fill="#ffffff" stroke="transparent" points="-4,4 -4,-280 664,-280 664,4 -4,4"/>
<text text-anchor="start" x="309.0091" y="-42.4" font-family="sans-serif" font-weight="bold" font-size="14.00" fill="#000000">Legend</text>
<polygon fill="#ffffb3" stroke="transparent" points="96,-10 96,-30 116,-30 116,-10 96,-10"/>
<text text-anchor="start" x="119.629" y="-15.4" font-family="sans-serif" font-size="14.00" fill="#000000"> &#160;Declarations</text>
<polygon fill="#8dd3c7" stroke="transparent" points="209,-10 209,-30 229,-30 229,-10 209,-10"/>
<text text-anchor="start" x="232.7251" y="-15.4" font-family="sans-serif" font-size="14.00" fill="#000000"> &#160;Module</text>
<polygon fill="#80b1d3" stroke="transparent" points="295,-10 295,-30 315,-30 315,-10 295,-10"/>
<text text-anchor="start" x="318.7812" y="-15.4" font-family="sans-serif" font-size="14.00" fill="#000000"> &#160;Bootstrap</text>
<polygon fill="#fdb462" stroke="transparent" points="392,-10 392,-30 412,-30 412,-10 392,-10"/>
<text text-anchor="start" x="415.6732" y="-15.4" font-family="sans-serif" font-size="14.00" fill="#000000"> &#160;Providers</text>
<polygon fill="#fb8072" stroke="transparent" points="488,-10 488,-30 508,-30 508,-10 488,-10"/>
<text text-anchor="start" x="511.7258" y="-15.4" font-family="sans-serif" font-size="14.00" fill="#000000"> &#160;Exports</text>
<g id="clust1" class="cluster">
<title>cluster_MainModule</title>
<polygon fill="none" stroke="#000000" stroke-dasharray="1,5" points="8,-70 8,-268 652,-268 652,-70 8,-70"/>
</g>
<g id="clust2" class="cluster">
<title>cluster_MainModule_declarations</title>
<polygon fill="none" stroke="#000000" points="146,-78 146,-130 644,-130 644,-78 146,-78"/>
</g>
<g id="clust6" class="cluster">
<title>cluster_MainModule_imports</title>
<polygon fill="none" stroke="#000000" points="16,-78 16,-130 138,-130 138,-78 16,-78"/>
</g>
<g id="clust7" class="cluster">
<title>cluster_MainModule_exports</title>
<polygon fill="none" stroke="#000000" points="147,-208 147,-260 475,-260 475,-208 147,-208"/>
</g>
<!-- IssueTableComponent -->
<g id="node1" class="node">
<title>IssueTableComponent</title>
<polygon fill="#ffffb3" stroke="#000000" points="635.9692,-122 494.0308,-122 494.0308,-86 635.9692,-86 635.9692,-122"/>
<text text-anchor="middle" x="565" y="-99.8" font-family="Times,serif" font-size="14.00" fill="#000000">IssueTableComponent</text>
</g>
<!-- MainModule -->
<g id="node4" class="node">
<title>MainModule</title>
<polygon fill="#8dd3c7" stroke="#000000" points="355.5997,-187 352.5997,-191 331.5997,-191 328.5997,-187 266.4003,-187 266.4003,-151 355.5997,-151 355.5997,-187"/>
<text text-anchor="middle" x="311" y="-164.8" font-family="Times,serif" font-size="14.00" fill="#000000">MainModule</text>
</g>
<!-- IssueTableComponent&#45;&gt;MainModule -->
<g id="edge1" class="edge">
<title>IssueTableComponent&#45;&gt;MainModule</title>
<path fill="none" stroke="#000000" d="M565,-122.1061C565,-141.3391 565,-169 565,-169 565,-169 365.8254,-169 365.8254,-169"/>
<polygon fill="#000000" stroke="#000000" points="365.8255,-165.5001 355.8254,-169 365.8254,-172.5001 365.8255,-165.5001"/>
</g>
<!-- UploadDialogComponent -->
<g id="node2" class="node">
<title>UploadDialogComponent</title>
<polygon fill="#ffffb3" stroke="#000000" points="476.147,-122 315.853,-122 315.853,-86 476.147,-86 476.147,-122"/>
<text text-anchor="middle" x="396" y="-99.8" font-family="Times,serif" font-size="14.00" fill="#000000">UploadDialogComponent</text>
</g>
<!-- UploadDialogComponent&#45;&gt;MainModule -->
<g id="edge2" class="edge">
<title>UploadDialogComponent&#45;&gt;MainModule</title>
<path fill="none" stroke="#000000" d="M335.6133,-122.1061C335.6133,-122.1061 335.6133,-140.991 335.6133,-140.991"/>
<polygon fill="#000000" stroke="#000000" points="332.1133,-140.9909 335.6133,-150.991 339.1133,-140.991 332.1133,-140.9909"/>
</g>
<!-- UploadFileComponent -->
<g id="node3" class="node">
<title>UploadFileComponent</title>
<polygon fill="#ffffb3" stroke="#000000" points="298.323,-122 153.677,-122 153.677,-86 298.323,-86 298.323,-122"/>
<text text-anchor="middle" x="226" y="-99.8" font-family="Times,serif" font-size="14.00" fill="#000000">UploadFileComponent</text>
</g>
<!-- UploadFileComponent&#45;&gt;MainModule -->
<g id="edge3" class="edge">
<title>UploadFileComponent&#45;&gt;MainModule</title>
<path fill="none" stroke="#000000" d="M282.3058,-122.1061C282.3058,-122.1061 282.3058,-140.991 282.3058,-140.991"/>
<polygon fill="#000000" stroke="#000000" points="278.8058,-140.9909 282.3058,-150.991 285.8058,-140.991 278.8058,-140.9909"/>
</g>
<!-- IssueTableComponent  -->
<g id="node6" class="node">
<title>IssueTableComponent </title>
<polygon fill="#fb8072" stroke="#000000" points="466.97,-252 321.03,-252 321.03,-216 466.97,-216 466.97,-252"/>
<text text-anchor="middle" x="394" y="-229.8" font-family="Times,serif" font-size="14.00" fill="#000000">IssueTableComponent </text>
</g>
<!-- MainModule&#45;&gt;IssueTableComponent  -->
<g id="edge5" class="edge">
<title>MainModule&#45;&gt;IssueTableComponent </title>
<path fill="none" stroke="#000000" stroke-dasharray="5,2" d="M338.4076,-187.1061C338.4076,-187.1061 338.4076,-205.991 338.4076,-205.991"/>
<polygon fill="#000000" stroke="#000000" points="334.9077,-205.9909 338.4076,-215.991 341.9077,-205.991 334.9077,-205.9909"/>
</g>
<!-- UploadFileComponent  -->
<g id="node7" class="node">
<title>UploadFileComponent </title>
<polygon fill="#fb8072" stroke="#000000" points="302.8227,-252 155.1773,-252 155.1773,-216 302.8227,-216 302.8227,-252"/>
<text text-anchor="middle" x="229" y="-229.8" font-family="Times,serif" font-size="14.00" fill="#000000">UploadFileComponent </text>
</g>
<!-- MainModule&#45;&gt;UploadFileComponent  -->
<g id="edge6" class="edge">
<title>MainModule&#45;&gt;UploadFileComponent </title>
<path fill="none" stroke="#000000" stroke-dasharray="5,2" d="M284.6808,-187.1061C284.6808,-187.1061 284.6808,-205.991 284.6808,-205.991"/>
<polygon fill="#000000" stroke="#000000" points="281.1808,-205.9909 284.6808,-215.991 288.1808,-205.991 281.1808,-205.9909"/>
</g>
<!-- MaterialModule -->
<g id="node5" class="node">
<title>MaterialModule</title>
<polygon fill="#8dd3c7" stroke="#000000" points="130.4706,-122 127.4706,-126 106.4706,-126 103.4706,-122 23.5294,-122 23.5294,-86 130.4706,-86 130.4706,-122"/>
<text text-anchor="middle" x="77" y="-99.8" font-family="Times,serif" font-size="14.00" fill="#000000">MaterialModule</text>
</g>
<!-- MaterialModule&#45;&gt;MainModule -->
<g id="edge4" class="edge">
<title>MaterialModule&#45;&gt;MainModule</title>
<path fill="none" stroke="#000000" d="M77,-122.1061C77,-141.3391 77,-169 77,-169 77,-169 256.4356,-169 256.4356,-169"/>
<polygon fill="#000000" stroke="#000000" points="256.4356,-172.5001 266.4356,-169 256.4356,-165.5001 256.4356,-172.5001"/>
</g>
</g>
</svg>
