<?xml version="1.0" encoding="UTF-8" standalone="no"?>
<!DOCTYPE svg PUBLIC "-//W3C//DTD SVG 1.1//EN"
 "http://www.w3.org/Graphics/SVG/1.1/DTD/svg11.dtd">
<!-- Generated by graphviz version 2.40.1 (20161225.0304)
 -->
<!-- Title: dependencies Pages: 1 -->
<svg width="1004pt" height="360pt"
 viewBox="0.00 0.00 1004.00 360.00" xmlns="http://www.w3.org/2000/svg" xmlns:xlink="http://www.w3.org/1999/xlink">
<g id="graph0" class="graph" transform="scale(1 1) rotate(0) translate(4 356)">
<title>dependencies</title>
<polygon fill="#ffffff" stroke="transparent" points="-4,4 -4,-356 1000,-356 1000,4 -4,4"/>
<text text-anchor="start" x="477.0091" y="-42.4" font-family="sans-serif" font-weight="bold" font-size="14.00" fill="#000000">Legend</text>
<polygon fill="#ffffb3" stroke="transparent" points="264,-10 264,-30 284,-30 284,-10 264,-10"/>
<text text-anchor="start" x="287.629" y="-15.4" font-family="sans-serif" font-size="14.00" fill="#000000"> &#160;Declarations</text>
<polygon fill="#8dd3c7" stroke="transparent" points="377,-10 377,-30 397,-30 397,-10 377,-10"/>
<text text-anchor="start" x="400.7251" y="-15.4" font-family="sans-serif" font-size="14.00" fill="#000000"> &#160;Module</text>
<polygon fill="#80b1d3" stroke="transparent" points="463,-10 463,-30 483,-30 483,-10 463,-10"/>
<text text-anchor="start" x="486.7812" y="-15.4" font-family="sans-serif" font-size="14.00" fill="#000000"> &#160;Bootstrap</text>
<polygon fill="#fdb462" stroke="transparent" points="560,-10 560,-30 580,-30 580,-10 560,-10"/>
<text text-anchor="start" x="583.6732" y="-15.4" font-family="sans-serif" font-size="14.00" fill="#000000"> &#160;Providers</text>
<polygon fill="#fb8072" stroke="transparent" points="656,-10 656,-30 676,-30 676,-10 656,-10"/>
<text text-anchor="start" x="679.7258" y="-15.4" font-family="sans-serif" font-size="14.00" fill="#000000"> &#160;Exports</text>
<g id="clust1" class="cluster">
<title>cluster_AppModule</title>
<polygon fill="none" stroke="#000000" stroke-dasharray="1,5" points="426,-146 426,-344 678,-344 678,-146 426,-146"/>
</g>
<g id="clust2" class="cluster">
<title>cluster_AppModule_declarations</title>
<polygon fill="none" stroke="#000000" points="548,-154 548,-206 670,-206 670,-154 548,-154"/>
</g>
<g id="clust4" class="cluster">
<title>cluster_AppModule_imports</title>
<polygon fill="none" stroke="#000000" points="434,-154 434,-206 540,-206 540,-154 434,-154"/>
</g>
<g id="clust6" class="cluster">
<title>cluster_AppModule_bootstrap</title>
<polygon fill="none" stroke="#000000" points="490,-284 490,-336 614,-336 614,-284 490,-284"/>
</g>
<g id="clust8" class="cluster">
<title>cluster_MainModule</title>
<polygon fill="none" stroke="#000000" stroke-dasharray="1,5" points="8,-70 8,-138 988,-138 988,-70 8,-70"/>
</g>
<g id="clust9" class="cluster">
<title>cluster_MainModule_declarations</title>
<polygon fill="none" stroke="#000000" points="482,-78 482,-130 980,-130 980,-78 482,-78"/>
</g>
<g id="clust13" class="cluster">
<title>cluster_MainModule_imports</title>
<polygon fill="none" stroke="#000000" points="352,-78 352,-130 474,-130 474,-78 352,-78"/>
</g>
<g id="clust14" class="cluster">
<title>cluster_MainModule_exports</title>
<polygon fill="none" stroke="#000000" points="16,-78 16,-130 344,-130 344,-78 16,-78"/>
</g>
<!-- AppComponent -->
<g id="node1" class="node">
<title>AppComponent</title>
<polygon fill="#ffffb3" stroke="#000000" points="661.9399,-198 556.0601,-198 556.0601,-162 661.9399,-162 661.9399,-198"/>
<text text-anchor="middle" x="609" y="-175.8" font-family="Times,serif" font-size="14.00" fill="#000000">AppComponent</text>
</g>
<!-- AppModule -->
<g id="node2" class="node">
<title>AppModule</title>
<polygon fill="#8dd3c7" stroke="#000000" points="593.6571,-263 590.6571,-267 569.6571,-267 566.6571,-263 510.3429,-263 510.3429,-227 593.6571,-227 593.6571,-263"/>
<text text-anchor="middle" x="552" y="-240.8" font-family="Times,serif" font-size="14.00" fill="#000000">AppModule</text>
</g>
<!-- AppComponent&#45;&gt;AppModule -->
<g id="edge1" class="edge">
<title>AppComponent&#45;&gt;AppModule</title>
<path fill="none" stroke="#000000" d="M575.0544,-198.1061C575.0544,-198.1061 575.0544,-216.991 575.0544,-216.991"/>
<polygon fill="#000000" stroke="#000000" points="571.5544,-216.9909 575.0544,-226.991 578.5544,-216.991 571.5544,-216.9909"/>
</g>
<!-- AppComponent  -->
<g id="node4" class="node">
<title>AppComponent </title>
<polygon fill="#80b1d3" stroke="#000000" points="606.439,-328 497.561,-328 497.561,-292 606.439,-292 606.439,-328"/>
<text text-anchor="middle" x="552" y="-305.8" font-family="Times,serif" font-size="14.00" fill="#000000">AppComponent </text>
</g>
<!-- AppModule&#45;&gt;AppComponent  -->
<g id="edge3" class="edge">
<title>AppModule&#45;&gt;AppComponent </title>
<path fill="none" stroke="#000000" stroke-dasharray="1,5" d="M552,-263.1061C552,-263.1061 552,-281.991 552,-281.991"/>
<polygon fill="#000000" stroke="#000000" points="548.5001,-281.9909 552,-291.991 555.5001,-281.991 548.5001,-281.9909"/>
</g>
<!-- MainModule -->
<g id="node3" class="node">
<title>MainModule</title>
<polygon fill="#8dd3c7" stroke="#000000" points="531.5997,-198 528.5997,-202 507.5997,-202 504.5997,-198 442.4003,-198 442.4003,-162 531.5997,-162 531.5997,-198"/>
<text text-anchor="middle" x="487" y="-175.8" font-family="Times,serif" font-size="14.00" fill="#000000">MainModule</text>
</g>
<!-- MainModule&#45;&gt;AppModule -->
<g id="edge2" class="edge">
<title>MainModule&#45;&gt;AppModule</title>
<path fill="none" stroke="#000000" d="M520.8608,-198.1061C520.8608,-198.1061 520.8608,-216.991 520.8608,-216.991"/>
<polygon fill="#000000" stroke="#000000" points="517.3609,-216.9909 520.8608,-226.991 524.3609,-216.991 517.3609,-216.9909"/>
</g>
<!-- IssueTableComponent  -->
<g id="node9" class="node">
<title>IssueTableComponent </title>
<polygon fill="#fb8072" stroke="#000000" points="335.97,-122 190.03,-122 190.03,-86 335.97,-86 335.97,-122"/>
<text text-anchor="middle" x="263" y="-99.8" font-family="Times,serif" font-size="14.00" fill="#000000">IssueTableComponent </text>
</g>
<!-- MainModule&#45;&gt;IssueTableComponent  -->
<g id="edge8" class="edge">
<title>MainModule&#45;&gt;IssueTableComponent </title>
<path fill="none" stroke="#000000" stroke-dasharray="5,2" d="M442.2086,-174C376.8397,-174 263,-174 263,-174 263,-174 263,-132.0267 263,-132.0267"/>
<polygon fill="#000000" stroke="#000000" points="266.5001,-132.0267 263,-122.0267 259.5001,-132.0268 266.5001,-132.0267"/>
</g>
<!-- UploadFileComponent  -->
<g id="node10" class="node">
<title>UploadFileComponent </title>
<polygon fill="#fb8072" stroke="#000000" points="171.8227,-122 24.1773,-122 24.1773,-86 171.8227,-86 171.8227,-122"/>
<text text-anchor="middle" x="98" y="-99.8" font-family="Times,serif" font-size="14.00" fill="#000000">UploadFileComponent </text>
</g>
<!-- MainModule&#45;&gt;UploadFileComponent  -->
<g id="edge9" class="edge">
<title>MainModule&#45;&gt;UploadFileComponent </title>
<path fill="none" stroke="#000000" stroke-dasharray="5,2" d="M442.3768,-186C340.199,-186 98,-186 98,-186 98,-186 98,-132.1985 98,-132.1985"/>
<polygon fill="#000000" stroke="#000000" points="101.5001,-132.1984 98,-122.1985 94.5001,-132.1985 101.5001,-132.1984"/>
</g>
<!-- IssueTableComponent -->
<g id="node5" class="node">
<title>IssueTableComponent</title>
<polygon fill="#ffffb3" stroke="#000000" points="971.9692,-122 830.0308,-122 830.0308,-86 971.9692,-86 971.9692,-122"/>
<text text-anchor="middle" x="901" y="-99.8" font-family="Times,serif" font-size="14.00" fill="#000000">IssueTableComponent</text>
</g>
<!-- IssueTableComponent&#45;&gt;MainModule -->
<g id="edge4" class="edge">
<title>IssueTableComponent&#45;&gt;MainModule</title>
<path fill="none" stroke="#000000" d="M901,-122.0439C901,-134.5633 901,-149 901,-149 901,-149 521.122,-149 521.122,-149 521.122,-149 521.122,-151.9672 521.122,-151.9672"/>
<polygon fill="#000000" stroke="#000000" points="517.6221,-151.9671 521.122,-161.9672 524.6221,-151.9672 517.6221,-151.9671"/>
</g>
<!-- UploadDialogComponent -->
<g id="node6" class="node">
<title>UploadDialogComponent</title>
<polygon fill="#ffffb3" stroke="#000000" points="812.147,-122 651.853,-122 651.853,-86 812.147,-86 812.147,-122"/>
<text text-anchor="middle" x="732" y="-99.8" font-family="Times,serif" font-size="14.00" fill="#000000">UploadDialogComponent</text>
</g>
<!-- UploadDialogComponent&#45;&gt;MainModule -->
<g id="edge5" class="edge">
<title>UploadDialogComponent&#45;&gt;MainModule</title>
<path fill="none" stroke="#000000" d="M656.6981,-122.2434C656.6981,-129.4297 656.6981,-136 656.6981,-136 656.6981,-136 510.6943,-136 510.6943,-136 510.6943,-136 510.6943,-151.8495 510.6943,-151.8495"/>
<polygon fill="#000000" stroke="#000000" points="507.1943,-151.8494 510.6943,-161.8495 514.1943,-151.8495 507.1943,-151.8494"/>
</g>
<!-- UploadFileComponent -->
<g id="node7" class="node">
<title>UploadFileComponent</title>
<polygon fill="#ffffb3" stroke="#000000" points="634.323,-122 489.677,-122 489.677,-86 634.323,-86 634.323,-122"/>
<text text-anchor="middle" x="562" y="-99.8" font-family="Times,serif" font-size="14.00" fill="#000000">UploadFileComponent</text>
</g>
<!-- UploadFileComponent&#45;&gt;MainModule -->
<g id="edge6" class="edge">
<title>UploadFileComponent&#45;&gt;MainModule</title>
<path fill="none" stroke="#000000" d="M500.2665,-122.0109C500.2665,-122.0109 500.2665,-151.855 500.2665,-151.855"/>
<polygon fill="#000000" stroke="#000000" points="496.7666,-151.8549 500.2665,-161.855 503.7666,-151.855 496.7666,-151.8549"/>
</g>
<!-- MaterialModule -->
<g id="node8" class="node">
<title>MaterialModule</title>
<polygon fill="#8dd3c7" stroke="#000000" points="466.4706,-122 463.4706,-126 442.4706,-126 439.4706,-122 359.5294,-122 359.5294,-86 466.4706,-86 466.4706,-122"/>
<text text-anchor="middle" x="413" y="-99.8" font-family="Times,serif" font-size="14.00" fill="#000000">MaterialModule</text>
</g>
<!-- MaterialModule&#45;&gt;MainModule -->
<g id="edge7" class="edge">
<title>MaterialModule&#45;&gt;MainModule</title>
<path fill="none" stroke="#000000" d="M454.4678,-122.0109C454.4678,-122.0109 454.4678,-151.855 454.4678,-151.855"/>
<polygon fill="#000000" stroke="#000000" points="450.9678,-151.8549 454.4678,-161.855 457.9678,-151.855 450.9678,-151.8549"/>
</g>
</g>
</svg>
